<svg xmlns="http://www.w3.org/2000/svg" width="26.283" height="26.283" viewBox="0 0 26.283 26.283" class='instagram'>
  <g id="Icon_feather-instagram" data-name="Icon feather-instagram" transform="translate(-1.5 -1.5)">
    <path id="Path_1" data-name="Path 1" d="M8.821,3H20.462a5.821,5.821,0,0,1,5.821,5.821V20.462a5.821,5.821,0,0,1-5.821,5.821H8.821A5.821,5.821,0,0,1,3,20.462V8.821A5.821,5.821,0,0,1,8.821,3Z" fill="none" stroke="#fff" stroke-linecap="round" stroke-linejoin="round" stroke-width="3"/>
    <path id="Path_2" data-name="Path 2" d="M21.328,15.909A4.657,4.657,0,1,1,17.4,11.985a4.657,4.657,0,0,1,3.923,3.923Z" transform="translate(-2.03 -2.001)" fill="none" stroke="#fff" stroke-linecap="round" stroke-linejoin="round" stroke-width="3"/>
    <path id="Path_3" data-name="Path 3" d="M26.25,9.75h0" transform="translate(-5.206 -1.511)" fill="none" stroke="#fff" stroke-linecap="round" stroke-linejoin="round" stroke-width="3"/>
  </g>
</svg>
