<svg xmlns="http://www.w3.org/2000/svg" width="22.107" height="25.445" viewBox="0 0 22.107 25.445">
  <path id="Icon_simple-tiktok" data-name="Icon simple-tiktok" d="M13.979.021C15.368,0,16.746.011,18.125,0A6.6,6.6,0,0,0,19.98,4.421a7.477,7.477,0,0,0,4.5,1.9v4.273a11.348,11.348,0,0,1-4.453-1.028A13.1,13.1,0,0,1,18.3,8.577c-.011,3.1.011,6.192-.021,9.277a8.1,8.1,0,0,1-1.431,4.177,7.9,7.9,0,0,1-6.266,3.4,7.731,7.731,0,0,1-4.326-1.092,8,8,0,0,1-3.87-6.054c-.021-.53-.032-1.06-.011-1.58a7.982,7.982,0,0,1,9.256-7.082c.021,1.569-.042,3.138-.042,4.707A3.638,3.638,0,0,0,6.95,16.582,4.206,4.206,0,0,0,6.8,18.289a3.608,3.608,0,0,0,3.711,3.043,3.562,3.562,0,0,0,2.937-1.707,2.446,2.446,0,0,0,.435-1.124c.106-1.9.064-3.785.074-5.683.011-4.273-.011-8.535.021-12.8Z" transform="translate(-2.369)" fill="#fff"/>
</svg>
