<svg xmlns="http://www.w3.org/2000/svg" width="26.065" height="26.064" viewBox="0 0 26.065 26.064">
  <path id="Icon_metro-linkedin" data-name="Icon metro-linkedin" d="M24.257,1.928H6.949A4.391,4.391,0,0,0,2.571,6.306V23.615a4.391,4.391,0,0,0,4.378,4.378H24.257a4.391,4.391,0,0,0,4.378-4.378V6.306a4.391,4.391,0,0,0-4.378-4.378ZM12.345,23.106H9.087V11.7h3.258v11.4ZM10.716,10.073a1.629,1.629,0,1,1,1.629-1.629A1.629,1.629,0,0,1,10.716,10.073ZM23.748,23.106H20.49V16.589a1.629,1.629,0,0,0-3.258,0v6.516H13.974V11.7h3.258v2.023c.672-.923,1.7-2.023,2.851-2.023a3.885,3.885,0,0,1,3.665,4.073v7.331Z" transform="translate(-2.571 -1.928)" fill="#fff"/>
</svg>
