<svg xmlns="http://www.w3.org/2000/svg" width="661.572" height="453.485" viewBox="0 0 661.572 453.485">
  <path id="rgba_4_6_6_1_" data-name="rgba(4,6,6,1)" d="M60.9,76H666.667l5.328,1.251,6.393,2.5,6.127,3.96,1.066,1.251,5.86,6.67,1.065,2.084v1.668l1.066,1.251v282.23a29.658,29.658,0,0,1-12.52,15.633l-8.524,3.752a7.7,7.7,0,0,0-4.795,1.251h-3.2l-3.729.834H333.151L127.5,519.564l-4,1.667q.586,1.126-.8.834l-9.057,5.42h-1.332l53.277-127.149H67.3l-3.729-.834H59.839l-5.86-1.668a30.779,30.779,0,0,1-10.922-6.045,25.889,25.889,0,0,1-6.926-8.755L34,376.365V99.137l2.131-6.67L43.057,83.5l8.258-4.586Z" transform="translate(-33 -75)" fill="rgb(10, 13, 31)" stroke="#fff" stroke-width="2"/>
</svg>
